<?xml version="1.0" encoding="iso-8859-1"?>
<!-- Generator: Adobe Illustrator 17.1.0, SVG Export Plug-In . SVG Version: 6.00 Build 0)  -->
<!DOCTYPE svg PUBLIC "-//W3C//DTD SVG 1.1//EN" "http://www.w3.org/Graphics/SVG/1.1/DTD/svg11.dtd">
<svg version="1.1" id="Capa_1" xmlns="http://www.w3.org/2000/svg" xmlns:xlink="http://www.w3.org/1999/xlink" x="0px" y="0px"
	 viewBox="0 0 492.24 492.24" style="enable-background:new 0 0 492.24 492.24;" xml:space="preserve">
<g>
	<path d="M483.029,9.211c-12.281-12.281-32.266-12.282-44.547,0L318.98,128.712c-4.119,4.12-5.424,10-3.927,15.241l-7.386,7.386
		c-1.605,1.605-3.74,2.49-6.01,2.49s-4.405-0.884-6.01-2.49c-1.406-1.406-3.314-2.197-5.303-2.197s-3.897,0.79-5.303,2.197
		L2.197,434.182c-2.929,2.929-2.929,7.678,0,10.606l45.255,45.255c1.406,1.407,3.314,2.197,5.303,2.197s3.897-0.79,5.303-2.197
		l282.842-282.843c2.929-2.929,2.929-7.677,0-10.606c-3.314-3.314-3.314-8.707,0-12.021l7.386-7.386
		c1.397,0.399,2.839,0.605,4.281,0.605c3.969,0,7.938-1.511,10.96-4.533l119.5-119.5C495.31,41.477,495.31,21.493,483.029,9.211z
		 M329.587,139.318l10.197-10.197l23.335,23.334l-10.197,10.198c-0.195,0.195-0.512,0.195-0.707,0l-22.627-22.627
		C329.392,139.831,329.392,139.513,329.587,139.318z M330.294,173.967c-7.309,7.309-8.788,18.274-4.436,27.063L52.755,474.134
		l-34.648-34.648l273.096-273.096c3.208,1.596,6.766,2.44,10.454,2.44c6.277,0,12.178-2.445,16.617-6.883l6.011-6.01l12.021,12.021
		L330.294,173.967z M472.422,43.152l-98.697,98.697l-23.335-23.334l98.697-98.697c3.217-3.217,7.442-4.825,11.667-4.825
		c4.225,0,8.45,1.608,11.667,4.825C478.855,26.251,478.855,36.719,472.422,43.152z"/>
	<path d="M53.109,428.525l-5.657,5.657c-2.929,2.929-2.929,7.678,0,10.606c1.464,1.464,3.384,2.197,5.303,2.197
		s3.839-0.732,5.303-2.197l5.657-5.657c2.929-2.929,2.929-7.678,0-10.606C60.786,425.597,56.037,425.597,53.109,428.525z"/>
	<path d="M279.383,202.251L70.079,411.555c-2.929,2.929-2.929,7.678,0,10.606c1.464,1.464,3.384,2.197,5.303,2.197
		s3.839-0.732,5.303-2.197l209.303-209.304c2.929-2.929,2.929-7.677,0-10.606C287.06,199.322,282.311,199.322,279.383,202.251z"/>
</g>
<g>
</g>
<g>
</g>
<g>
</g>
<g>
</g>
<g>
</g>
<g>
</g>
<g>
</g>
<g>
</g>
<g>
</g>
<g>
</g>
<g>
</g>
<g>
</g>
<g>
</g>
<g>
</g>
<g>
</g>
</svg>
