<?xml version="1.0" encoding="iso-8859-1"?>
<!-- Generator: Adobe Illustrator 16.0.0, SVG Export Plug-In . SVG Version: 6.00 Build 0)  -->
<!DOCTYPE svg PUBLIC "-//W3C//DTD SVG 1.1//EN" "http://www.w3.org/Graphics/SVG/1.1/DTD/svg11.dtd">
<svg version="1.1" id="Capa_1" xmlns="http://www.w3.org/2000/svg" xmlns:xlink="http://www.w3.org/1999/xlink" x="0px" y="0px"
	 width="523.657px" height="523.657px" viewBox="0 0 523.657 523.657" style="enable-background:new 0 0 523.657 523.657;"
	 xml:space="preserve">
<g>
	<g>
		<path d="M476.129,205.022c-9.904,1.994-16.329,11.671-14.34,21.579l28.6,141.783c1.718,8.521,9.253,14.703,17.928,14.703
			c1.215,0,2.452-0.121,3.648-0.367c4.153-0.842,7.646-3.086,10.216-6.085L493.41,210.812c-3.387-3.8-8.288-6.159-13.647-6.159
			C478.561,204.653,477.333,204.776,476.129,205.022z"/>
		<path d="M274.782,112.331c17.779-5.736,34.08-3.266,49.27,7.578c12.531,8.944,23.103,16.188,39.048,16.361
			c13.604,0.147,29.386-2.856,39.635-12.555c10.59-10.008,15.513-29.481,2.489-39.965c-6.575-5.299-14.708-8.055-21.473-13.048
			c-0.032-0.016-0.043-0.046-0.085-0.063h-8.405h-86.266H252.46c-5.801,0-11.432,0.717-16.853,1.957
			c-7.562,9.973-12.197,24.922-7.331,36.73C236.484,129.205,260.7,116.877,274.782,112.331z"/>
		<path d="M523.497,385.702c-2.913,2.12-6.294,3.671-10.037,4.427c-1.7,0.34-3.424,0.509-5.143,0.509
			c-12.257,0-22.916-8.732-25.329-20.764l-28.604-141.787c-2.812-13.987,6.271-27.658,20.259-30.477
			c1.694-0.341,3.414-0.514,5.133-0.514c4.206,0,8.202,1.091,11.762,2.935l-4.386-25.294c0.08-1.316,0.206-2.577,0.206-3.962v-1.887
			c0-142.504-33.828-98.245-75.561-98.245h-13.316c12.302,7.158,22.982,15.544,21.954,31.914
			c-1.98,31.959-37.335,43.979-64.901,40.684c-6.946-0.829-14.194-2.701-20.273-6.276c-8.834-5.205-16.286-12.887-25.797-16.999
			c-24.162-10.479-43.311,9.721-67.109,7.781c-26.951-2.202-26.58-32.016-17.111-51.986c-21.16,8.197-37.586,25.673-44.564,47.409
			L29.502,123.58L0,139.643l27.553,16.917l150.208,1.978c5.094,36.78,36.522,65.133,74.699,65.133h36.535h62.692
			c7.966,9.105,55.949,68.587,35.699,160.071c-22.037,99.615,29.131,74.858,68.016,68.019
			C505.984,437.413,525.664,423.42,523.497,385.702z M159.61,152.694l-16.085-0.213l19.442-23.669l16.05-0.044
			c-0.042,0.17-0.107,0.32-0.142,0.482L159.61,152.694z M96.696,128.998l16.295-0.044l-18.799,22.878l-16.087-0.214L96.696,128.998z
			 M60.241,151.389l-16.087-0.213l18.145-22.082l16.293-0.047L60.241,151.389z M129.522,128.907l16.293-0.044l-19.228,23.399
			l-16.083-0.211L129.522,128.907z M19.36,144.951l12.96-15.773l16.301-0.046l-17.981,21.863l-1.47-0.017L19.36,144.951z"/>
		<path d="M328.971,233.745c0,0,21.412,22.049,21.412,40.936l20.782-3.146l-19.524-37.789H328.971z"/>
	</g>
</g>
<g>
</g>
<g>
</g>
<g>
</g>
<g>
</g>
<g>
</g>
<g>
</g>
<g>
</g>
<g>
</g>
<g>
</g>
<g>
</g>
<g>
</g>
<g>
</g>
<g>
</g>
<g>
</g>
<g>
</g>
</svg>
